<svg width="24" height="24" viewBox="0 0 24 24" fill="none" xmlns="http://www.w3.org/2000/svg">
<g id="favorite">
<mask id="mask0_2001_300" style="mask-type:alpha" maskUnits="userSpaceOnUse" x="0" y="0" width="24" height="24">
<rect id="Bounding box" width="24" height="24" fill="#D9D9D9"/>
</mask>
<g mask="url(#mask0_2001_300)">
<path id="favorite_2" d="M12 19.25L11.45 18.75C9.83338 17.2667 8.49588 16 7.43755 14.95C6.37922 13.9 5.54588 12.9792 4.93755 12.1875C4.32922 11.3958 3.90422 10.6833 3.66255 10.05C3.42088 9.41667 3.30005 8.78333 3.30005 8.15C3.30005 6.96667 3.70422 5.97083 4.51255 5.1625C5.32088 4.35417 6.31672 3.95 7.50005 3.95C8.38338 3.95 9.20838 4.1875 9.97505 4.6625C10.7417 5.1375 11.4167 5.83333 12 6.75C12.5834 5.83333 13.2584 5.1375 14.025 4.6625C14.7917 4.1875 15.6167 3.95 16.5 3.95C17.6834 3.95 18.6792 4.35417 19.4875 5.1625C20.2959 5.97083 20.7 6.96667 20.7 8.15C20.7 8.78333 20.5792 9.41667 20.3375 10.05C20.0959 10.6833 19.6709 11.3958 19.0625 12.1875C18.4542 12.9792 17.625 13.9 16.575 14.95C15.525 16 14.1834 17.2667 12.55 18.75L12 19.25ZM12 18.3C13.6 16.85 14.9167 15.6083 15.95 14.575C16.9834 13.5417 17.8 12.6458 18.4 11.8875C19 11.1292 19.4167 10.4583 19.65 9.875C19.8834 9.29167 20 8.71667 20 8.15C20 7.15 19.6667 6.31667 19 5.65C18.3334 4.98333 17.5 4.65 16.5 4.65C15.7 4.65 14.9625 4.87917 14.2875 5.3375C13.6125 5.79583 12.9667 6.51667 12.35 7.5H11.65C11.0167 6.5 10.3667 5.775 9.70005 5.325C9.03338 4.875 8.30005 4.65 7.50005 4.65C6.51672 4.65 5.68755 4.98333 5.01255 5.65C4.33755 6.31667 4.00005 7.15 4.00005 8.15C4.00005 8.71667 4.11672 9.29167 4.35005 9.875C4.58338 10.4583 5.00005 11.1292 5.60005 11.8875C6.20005 12.6458 7.01672 13.5375 8.05005 14.5625C9.08338 15.5875 10.4 16.8333 12 18.3Z" fill="#B7B7B7"/>
</g>
</g>
</svg>
