<svg width="24" height="24" viewBox="0 0 24 24" fill="none" xmlns="http://www.w3.org/2000/svg">
<g id="notifications">
<mask id="mask0_2001_308" style="mask-type:alpha" maskUnits="userSpaceOnUse" x="0" y="0" width="24" height="24">
<rect id="Bounding box" width="24" height="24" fill="#D9D9D9"/>
</mask>
<g mask="url(#mask0_2001_308)">
<path id="notifications_2" d="M5.30005 18.7V18H6.80005V9.8C6.80005 8.51667 7.21255 7.39167 8.03755 6.425C8.86255 5.45833 9.90005 4.86667 11.15 4.65V4.15C11.15 3.91383 11.2324 3.71317 11.397 3.548C11.5617 3.38267 11.7617 3.3 11.997 3.3C12.2324 3.3 12.4334 3.38267 12.6 3.548C12.7667 3.71317 12.85 3.91383 12.85 4.15V4.65C14.1 4.86667 15.1375 5.45833 15.9625 6.425C16.7875 7.39167 17.2 8.51667 17.2 9.8V18H18.7V18.7H5.30005ZM11.9955 21.2C11.5819 21.2 11.2292 21.0531 10.9375 20.7592C10.6459 20.4656 10.5 20.1125 10.5 19.7H13.5C13.5 20.1167 13.3527 20.4708 13.058 20.7625C12.7635 21.0542 12.4094 21.2 11.9955 21.2ZM7.50005 18H16.5V9.8C16.5 8.55 16.0625 7.4875 15.1875 6.6125C14.3125 5.7375 13.25 5.3 12 5.3C10.75 5.3 9.68755 5.7375 8.81255 6.6125C7.93755 7.4875 7.50005 8.55 7.50005 9.8V18Z" fill="#B7B7B7"/>
</g>
</g>
</svg>
