<svg width="48" height="48" viewBox="0 0 48 48" fill="none" xmlns="http://www.w3.org/2000/svg">
<g id="Clip path group">
<mask id="mask0_2001_314" style="mask-type:luminance" maskUnits="userSpaceOnUse" x="0" y="0" width="48" height="48">
<g id="clip0_2_553">
<path id="Vector" d="M48 0H0V48H48V0Z" fill="white"/>
</g>
</mask>
<g mask="url(#mask0_2001_314)">
<g id="Group">
<path id="Vector_2" d="M48 24C48 37.2548 37.2548 48 24 48C10.7452 48 0 37.2548 0 24C0 10.7452 10.7452 0 24 0C37.2548 0 48 10.7452 48 24ZM2.4 24C2.4 35.9293 12.0707 45.6 24 45.6C35.9293 45.6 45.6 35.9293 45.6 24C45.6 12.0707 35.9293 2.4 24 2.4C12.0707 2.4 2.4 12.0707 2.4 24Z" fill="#D1D1D1" fill-opacity="0.2"/>
<path id="Vector_3" d="M46.8 24C47.4627 24 48.0031 24.5377 47.97 25.1996C47.7376 29.8441 46.1599 34.3308 43.4164 38.1068C40.4373 42.2072 36.2366 45.2592 31.4164 46.8254C26.5962 48.3915 21.4038 48.3915 16.5836 46.8254C11.7633 45.2592 7.56266 42.2072 4.58359 38.1068C1.60452 34.0065 -4.43085e-07 29.0683 0 24C4.43085e-07 18.9317 1.60452 13.9935 4.58359 9.89315C7.56267 5.79281 11.7634 2.74083 16.5836 1.17464C21.0227 -0.267695 25.7773 -0.381753 30.2663 0.832468C30.906 1.00551 31.2504 1.68561 31.0456 2.31591C30.8408 2.94622 30.1644 3.28771 29.5237 3.11822C25.5178 2.05849 21.2822 2.17148 17.3252 3.45718C12.987 4.86675 9.2064 7.61353 6.52524 11.3038C3.84407 14.9941 2.4 19.4385 2.4 24C2.4 28.5615 3.84407 33.0059 6.52523 36.6962C9.2064 40.3865 12.987 43.1332 17.3252 44.5428C21.6634 45.9524 26.3365 45.9524 30.6748 44.5428C35.013 43.1332 38.7936 40.3865 41.4748 36.6962C43.9203 33.3302 45.3366 29.3368 45.5667 25.1994C45.6035 24.5377 46.1373 24 46.8 24Z" fill="#11B43C"/>
</g>
</g>
</g>
</svg>
