<svg width="24" height="24" viewBox="0 0 24 24" fill="none" xmlns="http://www.w3.org/2000/svg">
<g id="search">
<mask id="mask0_2001_295" style="mask-type:alpha" maskUnits="userSpaceOnUse" x="0" y="0" width="24" height="24">
<rect id="Bounding box" width="24" height="24" fill="#D9D9D9"/>
</mask>
<g mask="url(#mask0_2001_295)">
<path id="search_2" d="M19.45 19.9L13.2 13.65C12.7 14.0833 12.125 14.4167 11.475 14.65C10.825 14.8833 10.1834 15 9.55005 15C8.01288 15 6.71188 14.468 5.64705 13.404C4.58238 12.3402 4.05005 11.0402 4.05005 9.504C4.05005 7.968 4.58205 6.66667 5.64605 5.6C6.70988 4.53333 8.00988 4 9.54605 4C11.082 4 12.3834 4.53233 13.45 5.597C14.5167 6.66183 15.05 7.96283 15.05 9.5C15.05 10.1833 14.925 10.85 14.675 11.5C14.425 12.15 14.1 12.7 13.7 13.15L19.95 19.4L19.45 19.9ZM9.55005 14.3C10.9 14.3 12.0375 13.8375 12.9625 12.9125C13.8875 11.9875 14.35 10.85 14.35 9.5C14.35 8.15 13.8875 7.0125 12.9625 6.0875C12.0375 5.1625 10.9 4.7 9.55005 4.7C8.20005 4.7 7.06255 5.1625 6.13755 6.0875C5.21255 7.0125 4.75005 8.15 4.75005 9.5C4.75005 10.85 5.21255 11.9875 6.13755 12.9125C7.06255 13.8375 8.20005 14.3 9.55005 14.3Z" fill="#B7B7B7"/>
</g>
</g>
</svg>
