<svg width="24" height="24" viewBox="0 0 24 24" fill="none" xmlns="http://www.w3.org/2000/svg">
<g id="shopping_cart">
<mask id="mask0_2001_304" style="mask-type:alpha" maskUnits="userSpaceOnUse" x="0" y="0" width="24" height="24">
<rect id="Bounding box" width="24" height="24" fill="#D9D9D9"/>
</mask>
<g mask="url(#mask0_2001_304)">
<path id="shopping_cart_2" d="M7.40005 20.85C7.01672 20.85 6.69588 20.7208 6.43755 20.4625C6.17922 20.2042 6.05005 19.8833 6.05005 19.5C6.05005 19.1167 6.17922 18.7958 6.43755 18.5375C6.69588 18.2792 7.01672 18.15 7.40005 18.15C7.78338 18.15 8.10422 18.2792 8.36255 18.5375C8.62088 18.7958 8.75005 19.1167 8.75005 19.5C8.75005 19.8833 8.62088 20.2042 8.36255 20.4625C8.10422 20.7208 7.78338 20.85 7.40005 20.85ZM16.6 20.85C16.2167 20.85 15.8959 20.7208 15.6376 20.4625C15.3792 20.2042 15.25 19.8833 15.25 19.5C15.25 19.1167 15.3792 18.7958 15.6376 18.5375C15.8959 18.2792 16.2167 18.15 16.6 18.15C16.9834 18.15 17.3042 18.2792 17.5626 18.5375C17.8209 18.7958 17.9501 19.1167 17.9501 19.5C17.9501 19.8833 17.8209 20.2042 17.5626 20.4625C17.3042 20.7208 16.9834 20.85 16.6 20.85ZM5.80005 5.35L8.55005 11.15H15.0751C15.225 11.15 15.3584 11.1125 15.475 11.0375C15.5917 10.9625 15.6917 10.8583 15.7751 10.725L18.35 6.05C18.4501 5.86667 18.4584 5.70417 18.375 5.5625C18.2917 5.42083 18.1501 5.35 17.9501 5.35H5.80005ZM5.45005 4.65H17.9501C18.4001 4.65 18.7376 4.82917 18.9626 5.1875C19.1876 5.54583 19.2001 5.91667 19 6.3L16.35 11.15C16.2167 11.3667 16.0459 11.5375 15.8376 11.6625C15.6292 11.7875 15.4001 11.85 15.1501 11.85H8.10005L6.85005 14.15C6.71672 14.35 6.71255 14.5667 6.83755 14.8C6.96255 15.0333 7.15005 15.15 7.40005 15.15H17.9501V15.85H7.40005C6.86672 15.85 6.47088 15.6292 6.21255 15.1875C5.95422 14.7458 5.95005 14.3 6.20005 13.85L7.75005 11.1L4.05005 3.35H2.30005V2.65H4.50005L5.45005 4.65Z" fill="#B7B7B7"/>
</g>
</g>
</svg>
